<?xml version="1.0" encoding="utf-8"?>
<!-- Generator: Adobe Illustrator 16.0.0, SVG Export Plug-In . SVG Version: 6.00 Build 0)  -->
<!DOCTYPE svg PUBLIC "-//W3C//DTD SVG 1.1//EN" "http://www.w3.org/Graphics/SVG/1.1/DTD/svg11.dtd">
<svg version="1.1" id="Layer_1" xmlns="http://www.w3.org/2000/svg" xmlns:xlink="http://www.w3.org/1999/xlink" x="0px" y="0px"
	 width="520px" height="140px" viewBox="0 0 520 140" enable-background="new 0 0 520 140" xml:space="preserve">
<g>
	<g>
		<path fill="#FFFFFF" d="M158.959,99.049c-2.664-0.563-4.768-1.558-6.323-2.99c-1.549-1.435-2.642-3.374-3.282-5.814
			c-0.644-2.459-0.958-5.547-0.958-9.277v-5.725c0-4.422,0.329-7.977,0.986-10.664c0.663-2.688,1.789-4.763,3.383-6.216
			c1.602-1.451,3.743-2.427,6.448-2.926c2.704-0.495,6.119-0.747,10.249-0.747h9.448c4.338,0,7.918,0.204,10.724,0.613
			c2.811,0.416,5.023,1.187,6.641,2.318c1.618,1.125,2.747,2.685,3.386,4.676c0.637,1.995,0.952,4.58,0.952,7.743h-10.979
			c0-0.866-0.114-1.635-0.35-2.31c-0.231-0.674-0.732-1.234-1.502-1.692c-0.764-0.453-1.896-0.786-3.382-1.003
			c-1.488-0.217-3.49-0.327-5.998-0.327h-8.173c-2.387,0-4.312,0.097-5.784,0.292c-1.467,0.195-2.591,0.643-3.379,1.334
			c-0.786,0.69-1.31,1.732-1.563,3.118c-0.258,1.392-0.386,3.277-0.386,5.666v4.938c0,2.215,0.128,3.976,0.386,5.27
			c0.253,1.301,0.766,2.313,1.531,3.025c0.766,0.718,1.851,1.179,3.253,1.398c1.41,0.217,3.257,0.327,5.555,0.327h8.686
			c2.341,0,4.244-0.065,5.712-0.199c1.464-0.128,2.604-0.409,3.413-0.843s1.354-1.043,1.631-1.818
			c0.28-0.784,0.416-1.806,0.416-3.061h10.979c0,2.994-0.244,5.498-0.736,7.513c-0.487,2.015-1.508,3.634-3.069,4.845
			c-1.548,1.217-3.775,2.084-6.666,2.603c-2.896,0.52-6.699,0.78-11.425,0.78h-9.701C164.986,99.895,161.618,99.613,158.959,99.049"
			/>
		<polygon fill="#FFFFFF" points="253.348,54.689 253.348,63.665 218.617,63.665 218.617,71.992 252.26,71.992 252.26,81.031 
			218.617,81.031 218.617,90.787 253.348,90.787 253.348,99.83 208.02,99.83 208.02,54.689 		"/>
		<path fill="#FFFFFF" d="M296.241,54.689c5.582,0,9.708,1.042,12.387,3.123c2.681,2.081,4.024,5.289,4.024,9.628h-11.426
			c0-0.691-0.073-1.283-0.225-1.761c-0.152-0.47-0.424-0.866-0.826-1.169c-0.406-0.299-0.959-0.52-1.665-0.646
			c-0.699-0.134-1.608-0.199-2.713-0.199h-17.81c-1.49,0-2.726,0.272-3.703,0.812c-0.982,0.543-1.465,1.68-1.465,3.413
			c0,0.916,0.125,1.617,0.379,2.118c0.257,0.499,0.607,0.867,1.053,1.104c0.452,0.244,0.992,0.393,1.63,0.459
			c0.636,0.061,1.338,0.12,2.106,0.161l19.601,0.776c2.507,0.09,4.713,0.293,6.608,0.623c1.893,0.323,3.468,0.952,4.721,1.888
			c1.252,0.931,2.206,2.259,2.84,3.999c0.64,1.732,0.962,4.095,0.962,7.09c0,2.427-0.256,4.494-0.768,6.209
			c-0.511,1.713-1.351,3.129-2.524,4.265c-1.169,1.128-2.713,1.945-4.628,2.468c-1.911,0.523-4.26,0.781-7.021,0.781h-21.96
			c-2.813,0-5.174-0.258-7.09-0.781c-1.91-0.522-3.455-1.313-4.625-2.377c-1.171-1.058-1.999-2.388-2.496-4.001
			c-0.485-1.599-0.729-3.49-0.729-5.652h10.855c0,1.124,0.49,2.038,1.465,2.727c0.979,0.698,2.215,1.042,3.701,1.042h17.746
			c2.344,0,4.095-0.3,5.239-0.911c1.148-0.604,1.718-1.815,1.718-3.642c0-0.825-0.101-1.523-0.315-2.115
			c-0.216-0.584-0.581-1.08-1.112-1.495c-0.538-0.409-1.281-0.722-2.238-0.938c-0.956-0.216-2.2-0.371-3.734-0.461l-16.983-0.712
			c-3.021-0.13-5.566-0.35-7.621-0.649c-2.074-0.303-3.763-0.881-5.085-1.727c-1.312-0.846-2.265-2.08-2.836-3.707
			c-0.574-1.629-0.865-3.847-0.865-6.667c0-2.383,0.3-4.414,0.895-6.085c0.598-1.661,1.537-3.023,2.807-4.061
			c1.281-1.042,2.928-1.789,4.953-2.243c2.02-0.457,4.458-0.685,7.307-0.685H296.241z"/>
		<rect x="320.162" y="54.689" fill="#FFFFFF" width="10.602" height="45.141"/>
		<path fill="#FFFFFF" d="M348.785,82.655c0,1.563,0.168,2.864,0.512,3.906c0.333,1.042,0.883,1.859,1.623,2.472
			c0.748,0.608,1.733,1.038,2.975,1.299c1.229,0.259,2.74,0.39,4.525,0.39h11.5c1.697,0,3.146-0.131,4.34-0.39
			c1.185-0.261,2.146-0.704,2.871-1.334c0.72-0.625,1.258-1.465,1.598-2.506c0.341-1.038,0.508-2.342,0.508-3.899V54.625H389.9V83.7
			c0,2.991-0.301,5.505-0.898,7.544c-0.594,2.038-1.596,3.687-2.999,4.941c-1.4,1.262-3.265,2.173-5.584,2.736
			c-2.323,0.562-5.185,0.842-8.589,0.842h-15.708c-3.274,0-6.04-0.295-8.293-0.876c-2.259-0.589-4.112-1.53-5.555-2.833
			c-1.449-1.297-2.494-2.969-3.126-5.006c-0.646-2.039-0.96-4.487-0.96-7.349V54.625h10.597V82.655z"/>
		<polygon fill="#FFFFFF" points="413.749,54.689 432.006,87.929 450.902,54.689 466.795,54.689 466.795,99.83 456.137,99.83 
			456.137,66.653 437.754,99.83 426.264,99.83 407.938,66.653 407.938,99.83 397.342,99.83 397.342,54.689 		"/>
		<path fill="#FFFFFF" d="M159.055,99.119c-2.658-0.564-4.762-1.559-6.316-2.99c-1.55-1.433-2.645-3.369-3.28-5.813
			c-0.641-2.452-0.958-5.541-0.958-9.268v-5.718c0-4.422,0.328-7.974,0.987-10.659c0.659-2.688,1.785-4.755,3.379-6.209
			c1.599-1.448,3.742-2.424,6.444-2.923c2.7-0.499,6.113-0.747,10.238-0.747h9.44c4.335,0,7.915,0.207,10.721,0.617
			c2.804,0.413,5.017,1.183,6.633,2.307c1.616,1.128,2.743,2.689,3.383,4.68c0.634,1.99,0.949,4.573,0.949,7.734H189.71
			c0-0.868-0.12-1.634-0.353-2.308c-0.234-0.67-0.737-1.234-1.501-1.688c-0.765-0.454-1.893-0.791-3.378-1.007
			c-1.49-0.217-3.489-0.323-6-0.323h-8.162c-2.381,0-4.309,0.096-5.777,0.292c-1.466,0.192-2.592,0.64-3.377,1.327
			c-0.788,0.695-1.311,1.733-1.563,3.118c-0.257,1.393-0.384,3.276-0.384,5.665v4.933c0,2.211,0.127,3.972,0.384,5.269
			c0.253,1.299,0.765,2.306,1.53,3.019c0.766,0.714,1.85,1.183,3.251,1.396c1.409,0.22,3.256,0.33,5.553,0.33h8.673
			c2.345,0,4.244-0.068,5.709-0.199c1.468-0.131,2.605-0.41,3.413-0.843c0.807-0.43,1.353-1.042,1.63-1.819
			c0.276-0.783,0.415-1.801,0.415-3.057h10.971c0,2.992-0.247,5.491-0.736,7.507c-0.484,2.015-1.507,3.634-3.059,4.842
			c-1.551,1.217-3.776,2.083-6.667,2.603c-2.893,0.52-6.695,0.777-11.414,0.777h-9.695
			C165.082,99.961,161.711,99.679,159.055,99.119"/>
		<polygon fill="#FFFFFF" points="253.371,54.792 253.371,63.761 218.666,63.761 218.666,72.082 252.281,72.082 252.281,81.117 
			218.666,81.117 218.666,90.862 253.371,90.862 253.371,99.898 208.078,99.898 208.078,54.792 		"/>
		<path fill="#FFFFFF" d="M296.232,54.792c5.576,0,9.702,1.04,12.38,3.116c2.677,2.083,4.017,5.289,4.017,9.624h-11.416
			c0-0.694-0.074-1.276-0.223-1.757c-0.152-0.474-0.422-0.866-0.829-1.169c-0.405-0.303-0.962-0.523-1.665-0.649
			c-0.698-0.128-1.603-0.196-2.706-0.196h-17.799c-1.488,0-2.723,0.271-3.693,0.811c-0.986,0.543-1.471,1.685-1.471,3.411
			c0,0.912,0.127,1.616,0.383,2.115c0.253,0.502,0.604,0.867,1.048,1.104c0.454,0.241,0.994,0.392,1.629,0.457
			c0.639,0.065,1.337,0.12,2.104,0.161l19.589,0.777c2.506,0.09,4.706,0.296,6.603,0.623c1.891,0.322,3.465,0.949,4.714,1.883
			c1.257,0.932,2.206,2.263,2.841,3.996c0.641,1.732,0.961,4.092,0.961,7.083c0,2.431-0.255,4.49-0.767,6.21
			c-0.512,1.709-1.349,3.129-2.523,4.253c-1.166,1.132-2.71,1.95-4.624,2.474c-1.91,0.521-4.256,0.779-7.018,0.779h-21.94
			c-2.812,0-5.174-0.258-7.084-0.779c-1.913-0.523-3.453-1.311-4.622-2.375c-1.173-1.061-2-2.393-2.493-3.998
			c-0.483-1.6-0.73-3.485-0.73-5.648h10.849c0,1.124,0.483,2.035,1.465,2.727c0.975,0.694,2.207,1.038,3.699,1.038h17.732
			c2.337,0,4.089-0.299,5.23-0.908c1.151-0.608,1.716-1.819,1.716-3.642c0-0.82-0.1-1.521-0.31-2.11
			c-0.218-0.588-0.585-1.079-1.117-1.496c-0.537-0.409-1.278-0.726-2.234-0.941c-0.955-0.214-2.199-0.368-3.73-0.454l-16.973-0.715
			c-3.021-0.128-5.561-0.348-7.617-0.65c-2.066-0.303-3.757-0.877-5.075-1.723c-1.314-0.846-2.263-2.08-2.836-3.703
			c-0.575-1.626-0.865-3.848-0.865-6.664c0-2.383,0.299-4.411,0.895-6.079c0.597-1.664,1.531-3.022,2.807-4.061
			c1.278-1.038,2.92-1.788,4.943-2.242c2.022-0.454,4.457-0.682,7.307-0.682H296.232z"/>
		<rect x="320.132" y="54.792" fill="#FFFFFF" width="10.596" height="45.106"/>
		<path fill="#FFFFFF" d="M348.736,82.734c0,1.564,0.162,2.863,0.507,3.902c0.334,1.042,0.885,1.863,1.631,2.472
			c0.742,0.605,1.73,1.042,2.963,1.296c1.23,0.266,2.741,0.393,4.529,0.393h11.485c1.698,0,3.142-0.127,4.335-0.393
			c1.19-0.254,2.147-0.701,2.872-1.327c0.721-0.628,1.258-1.464,1.594-2.506c0.342-1.038,0.51-2.342,0.51-3.896V54.729h10.657
			v29.055c0,2.984-0.299,5.501-0.899,7.536c-0.592,2.036-1.595,3.683-2.997,4.938c-1.401,1.258-3.261,2.165-5.578,2.729
			c-2.32,0.563-5.182,0.846-8.582,0.846h-15.7c-3.268,0-6.032-0.299-8.285-0.876c-2.252-0.588-4.104-1.527-5.549-2.831
			c-1.446-1.296-2.491-2.964-3.127-5.003c-0.64-2.035-0.957-4.486-0.957-7.34V54.729h10.592V82.734z"/>
		<polygon fill="#FFFFFF" points="413.647,54.792 431.894,88.005 450.774,54.792 466.654,54.792 466.654,99.898 456.005,99.898 
			456.005,66.749 437.635,99.898 426.154,99.898 407.841,66.749 407.841,99.898 397.257,99.898 397.257,54.792 		"/>
		<path fill="#FFFFFF" d="M479.74,59.397c0,2.62-2.019,4.68-4.649,4.68c-2.599,0-4.677-2.06-4.677-4.68
			c0-2.568,2.078-4.625,4.677-4.625C477.722,54.772,479.74,56.829,479.74,59.397 M471.575,59.397c0,2.056,1.497,3.693,3.545,3.693
			c1.992,0,3.458-1.637,3.458-3.666c0-2.06-1.466-3.724-3.487-3.724C473.072,55.701,471.575,57.365,471.575,59.397 M474.373,61.821
			h-1.053v-4.624c0.417-0.086,0.997-0.142,1.744-0.142c0.859,0,1.245,0.142,1.576,0.341c0.247,0.194,0.443,0.56,0.443,1.01
			c0,0.508-0.388,0.904-0.94,1.076v0.055c0.441,0.169,0.69,0.505,0.829,1.128c0.14,0.701,0.222,0.987,0.333,1.155h-1.134
			c-0.141-0.168-0.226-0.595-0.359-1.128c-0.084-0.508-0.362-0.732-0.941-0.732h-0.498V61.821z M474.4,59.198h0.497
			c0.583,0,1.049-0.196,1.049-0.674c0-0.426-0.301-0.708-0.966-0.708c-0.273,0-0.473,0.031-0.58,0.058V59.198z"/>
		<path fill="#FFFFFF" d="M131.494,70.019c0,25.63-20.391,46.408-45.547,46.408c-25.154,0-45.545-20.778-45.545-46.408
			s20.391-46.405,45.545-46.405C111.104,23.614,131.494,44.389,131.494,70.019"/>
		<path fill="#7A9C49" d="M123.358,63.854c-1.343,0-2.642,0.76-3.661,2.128L106.89,83.246c-2.119,2.857-5.133,4.498-8.265,4.498
			h-0.021h-0.024c-3.134,0-6.145-1.641-8.263-4.498L77.511,65.982c-1.019-1.368-2.316-2.128-3.664-2.128
			c-1.342,0-2.643,0.76-3.658,2.128L57.377,83.246c-2.105,2.836-5.091,4.471-8.191,4.498c6.529,14.024,20.517,23.752,36.766,23.752
			c22.474,0,40.701-18.57,40.701-41.474c0-1.626-0.11-3.215-0.293-4.779C125.467,64.349,124.429,63.854,123.358,63.854"/>
		<path fill="#6DABE4" d="M85.952,28.542c-22.483,0-40.711,18.57-40.711,41.477c0,3.647,0.507,7.162,1.374,10.535
			c0.768,0.599,1.627,0.953,2.499,0.953c1.351,0,2.648-0.753,3.669-2.122L65.59,62.12c2.114-2.864,5.131-4.503,8.257-4.503
			c3.128,0,6.14,1.639,8.261,4.503l12.318,16.601l0.533,0.664c1.017,1.361,2.311,2.111,3.645,2.122
			c1.33-0.011,2.625-0.761,3.64-2.122l0.538-0.664l12.322-16.601c2.114-2.864,5.129-4.503,8.255-4.503
			c0.495,0,0.995,0.055,1.484,0.137C119.706,40.833,104.241,28.542,85.952,28.542 M99.545,54.879c-2.351,0-4.25-1.942-4.25-4.339
			c0-2.391,1.899-4.329,4.25-4.329c2.354,0,4.255,1.938,4.255,4.329C103.8,52.938,101.899,54.879,99.545,54.879"/>
	</g>
</g>
</svg>
